# xmcd
#
# Track frame offsets:
#	150
#	15471
#	33280
#	59554
#	79018
#	115352
#	141583
#	173474
#	197306
#	219773
#
# Disc length: 3305 seconds
#
# Revision: 1
# Processed by: cddbd v1.5.1PL0 Copyright (c) Steve Scherf et al.
# Submitted via: audiograbber 1.82.02
#
DISCID=7c0ce70a
DTITLE=Ron Williams and The Bluesnight Band - Gottta Do The Richt Thing
DYEAR=2005
DGENRE=Blues
TTITLE0=Greg´s Bop
TTITLE1=Gotta Do The Right Thing
TTITLE2=Witness For My Love
TTITLE3=Diggin for Diamonds
TTITLE4=You Turn my World
TTITLE5=Salami Jump
TTITLE6=Lay Around
TTITLE7=Will The circle Be Unbroken
TTITLE8=Everyday I Have The Blues
TTITLE9=The Thrill is Gone
EXTD=
EXTT0=
EXTT1=
EXTT2=
EXTT3=
EXTT4=
EXTT5=
EXTT6=
EXTT7=
EXTT8=
EXTT9=
PLAYORDER=
